<svg width="205" height="27" viewBox="0 0 205 27" fill="none" xmlns="http://www.w3.org/2000/svg">
<g clip-path="url(#clip0_104_6159)">
<path d="M50.4923 5.95634H43.0137V2.30261H62.3698V5.95634H54.8912V26.5878H50.4923V5.95634Z" fill="#242423"/>
<path d="M65.0372 2.15564H69.253V6.21566H65.0372V2.15564ZM65.0744 8.35661H69.1815V26.5878H65.0744V8.35661Z" fill="#242423"/>
<path d="M72.0578 17.1768C72.0578 11.3447 75.6869 7.76587 81.1505 7.76587C86.2106 7.76587 89.5077 10.7194 89.5077 15.5545H85.8042C85.767 12.8229 84.0069 11.1631 81.2593 11.1631C78.1053 11.1631 76.1648 13.4136 76.1648 17.1797C76.1648 20.9458 78.071 23.1963 81.1133 23.1963C84.1557 23.1963 85.8071 21.5711 85.8414 18.8769H89.5449C89.5449 23.7495 86.099 26.5907 80.9301 26.5907C75.7613 26.5907 72.0578 23.0118 72.0578 17.1797V17.1768Z" fill="#242423"/>
<path d="M92.2868 1.01172H96.3938V17.9145H96.431L106.182 8.35664H111.497L103.028 16.2923L111.972 26.5907H106.4L100.02 18.9144L96.391 22.2742V26.5936H92.2839V1.01172H92.2868Z" fill="#242423"/>
<path d="M130.258 17.975H116.694C116.915 21.4818 118.858 23.3634 121.938 23.3634C124.576 23.3634 126.374 22.182 126.557 20.041H130.26C130.114 24.101 126.815 26.5734 121.866 26.5734C116.148 26.5734 112.556 23.0291 112.556 17.3094C112.556 11.5896 116.148 7.75146 121.866 7.75146C126.998 7.75146 130.26 10.8145 130.26 16.4997V17.975H130.258ZM126.554 15.2059C126.554 12.4742 124.868 10.9614 121.898 10.9614C118.927 10.9614 117.278 12.4368 116.803 15.4652H126.554V15.2059Z" fill="#242423"/>
<path d="M135.238 20.0929V11.7135H132.378V8.35369H134.688C135.384 8.35369 135.641 7.98486 135.75 6.9504L135.933 4.21875H139.342V8.35369H145.572V11.7135H139.342V19.871C139.342 22.2338 140.22 23.4152 142.713 23.4152C143.741 23.4152 144.911 23.2308 145.426 23.0839V26.3688C144.877 26.5532 143.629 26.8125 142.126 26.8125C137.178 26.8125 135.235 24.1183 135.235 20.0958L135.238 20.0929Z" fill="#242423"/>
<path d="M151.196 11.7165H148.3V8.35663H151.196V6.54706C151.196 2.48703 153.872 0.274048 157.796 0.274048C159.41 0.274048 160.73 0.56796 161.317 0.789835V4.07474C160.73 3.89032 159.777 3.63099 158.532 3.63099C156.442 3.63099 155.306 4.73748 155.306 6.73147V8.35663H161.611V11.7165H155.306V26.5907H151.199V11.7165H151.196Z" fill="#242423"/>
<path d="M164.353 19.4303V8.35669H168.46V18.8396C168.46 21.7182 170.22 23.3433 173.188 23.3433C176.855 23.3433 179.164 20.871 179.164 16.4422V8.35957H183.271V26.5908H179.164C179.273 25.3719 179.347 23.4154 179.347 21.4963H179.31C178.54 24.9656 176.01 26.8847 171.978 26.8847C167.25 26.8847 164.353 24.2654 164.353 19.4303Z" fill="#242423"/>
<path d="M186.047 8.35666H190.155L190.009 13.2293H190.046C191.036 9.94436 193.383 8.06274 197.599 8.06274C202.181 8.06274 205.003 10.682 205.003 15.1858V26.5907H200.896V16.1079C200.896 13.2293 199.282 11.6041 196.022 11.6041C192.43 11.6041 190.157 13.7825 190.157 17.7676V26.5879H186.05V8.35666H186.047Z" fill="#242423"/>
<path d="M27.3698 2.31995V20.1333V23.4816L24.2931 20.1333H9.46478V26.5879H30.4407V23.4903H33.7636V2.31995H27.3698Z" fill="#2970FF"/>
<path d="M6.39382 26.6398V8.82637V5.47807L9.47052 8.82637H24.2988V2.37183H3.3257V5.46943H0V26.6398H6.39382Z" fill="#2970FF"/>
</g>
<defs>
<clipPath id="clip0_104_6159">
<rect width="205" height="26.6106" fill="white" transform="translate(0 0.274048)"/>
</clipPath>
</defs>
</svg>
