<svg width="163" height="22" viewBox="0 0 163 22" fill="none" xmlns="http://www.w3.org/2000/svg">
<g clip-path="url(#clip0_11_1031)">
<path d="M40.1475 4.51808H34.2012V1.61292H49.5916V4.51808H43.6452V20.9226H40.1475V4.51808Z" fill="white"/>
<path d="M51.7125 1.49609H55.0646V4.72431H51.7125V1.49609ZM51.7421 6.42662H55.0077V20.9226H51.7421V6.42662Z" fill="white"/>
<path d="M57.2947 13.4398C57.2947 8.8025 60.1803 5.95691 64.5246 5.95691C68.548 5.95691 71.1695 8.30532 71.1695 12.1499H68.2248C68.1952 9.97785 66.7957 8.65816 64.611 8.65816C62.1032 8.65816 60.5603 10.4475 60.5603 13.4421C60.5603 16.4366 62.0759 18.226 64.495 18.226C66.914 18.226 68.2271 16.9337 68.2544 14.7915H71.1991C71.1991 18.6658 68.4592 20.9249 64.3493 20.9249C60.2395 20.9249 57.2947 18.0793 57.2947 13.4421V13.4398Z" fill="white"/>
<path d="M73.3792 0.586548H76.6448V14.0264H76.6744L84.4276 6.42666H88.6536L81.9199 12.7364L89.0313 20.925H84.6006L79.5281 14.8214L76.6426 17.4929V20.9273H73.377V0.586548H73.3792Z" fill="white"/>
<path d="M103.571 14.0745H92.7862C92.9615 16.8628 94.5066 18.3589 96.9553 18.3589C99.0535 18.3589 100.483 17.4196 100.628 15.7173H103.573C103.457 18.9455 100.833 20.9113 96.8984 20.9113C92.3516 20.9113 89.4956 18.0932 89.4956 13.5453C89.4956 8.99735 92.3516 5.94556 96.8984 5.94556C100.979 5.94556 103.573 8.38104 103.573 12.9015V14.0745H103.571ZM100.626 11.8727C100.626 9.70073 99.2856 8.49788 96.9234 8.49788C94.5613 8.49788 93.2505 9.67095 92.8727 12.0789H100.626V11.8727Z" fill="white"/>
<path d="M107.53 15.7585V9.09585H105.257V6.42438H107.093C107.646 6.42438 107.851 6.13111 107.938 5.3086L108.083 3.1366H110.794V6.42438H115.748V9.09585H110.794V15.5821C110.794 17.4608 111.492 18.4002 113.474 18.4002C114.291 18.4002 115.222 18.2535 115.632 18.1367V20.7486C115.195 20.8952 114.203 21.1014 113.008 21.1014C109.073 21.1014 107.528 18.9592 107.528 15.7608L107.53 15.7585Z" fill="white"/>
<path d="M120.22 9.09811H117.917V6.42664H120.22V4.98781C120.22 1.75959 122.347 0 125.467 0C126.751 0 127.8 0.233696 128.266 0.410114V3.02201C127.8 2.87538 127.042 2.66917 126.052 2.66917C124.391 2.66917 123.487 3.54897 123.487 5.13444V6.42664H128.501V9.09811H123.487V20.925H120.222V9.09811H120.22Z" fill="white"/>
<path d="M130.681 15.2315V6.42664H133.946V14.7618C133.946 17.0506 135.346 18.3428 137.706 18.3428C140.621 18.3428 142.457 16.377 142.457 12.8556V6.42893H145.723V20.925H142.457C142.544 19.9558 142.603 18.4001 142.603 16.8742H142.574C141.961 19.6328 139.95 21.1587 136.743 21.1587C132.984 21.1587 130.681 19.076 130.681 15.2315Z" fill="white"/>
<path d="M147.93 6.42669H151.196L151.08 10.301H151.11C151.897 7.68911 153.763 6.19299 157.115 6.19299C160.758 6.19299 163.002 8.27564 163.002 11.8567V20.925H159.737V12.5898C159.737 10.301 158.453 9.0088 155.861 9.0088C153.005 9.0088 151.198 10.7409 151.198 13.9095V20.9227H147.933V6.42669H147.93Z" fill="white"/>
<path d="M21.7623 1.62671V15.7905V18.4528L19.316 15.7905H7.5257V20.9227H24.2041V18.4597H26.8462V1.62671H21.7623Z" fill="#731DD8"/>
<path d="M5.08386 20.9639V6.80012V4.13781L7.53022 6.80012H19.3205V1.66797H2.64434V4.13094H0V20.9639H5.08386Z" fill="#731DD8"/>
</g>
<defs>
<clipPath id="clip0_11_1031">
<rect width="163" height="21.1587" fill="white"/>
</clipPath>
</defs>
</svg>
