<svg width="18" height="19" viewBox="0 0 18 19" fill="none" xmlns="http://www.w3.org/2000/svg">
<path d="M6.75 11.0001C7.16421 11.0001 7.5 11.3359 7.5 11.7501V13.7501C7.5 14.1643 7.16421 14.5001 6.75 14.5001C6.33579 14.5001 6 14.1643 6 13.7501V11.7501C6 11.3359 6.33579 11.0001 6.75 11.0001Z" fill="white"/>
<path d="M11.5 11.7501C11.5 11.3359 11.1642 11.0001 10.75 11.0001C10.3358 11.0001 10 11.3359 10 11.7501V13.7501C10 14.1643 10.3358 14.5001 10.75 14.5001C11.1642 14.5001 11.5 14.1643 11.5 13.7501V11.7501Z" fill="white"/>
<path fill-rule="evenodd" clip-rule="evenodd" d="M6.39952 1.12513C6.60662 0.766406 6.48372 0.307713 6.125 0.100606C5.76628 -0.106501 5.30759 0.0164058 5.10048 0.375125L3.10048 3.83923C3.07052 3.89112 3.04746 3.94511 3.03103 4.00013H2.75C1.23122 4.00013 0 5.23134 0 6.75013C0 7.60925 0.393966 8.37637 1.01109 8.88066L1.67803 13.4654L2.12478 15.5585C2.39244 16.8126 3.41623 17.7652 4.68636 17.9419C7.38247 18.3171 10.1175 18.3171 12.8136 17.9419C14.0838 17.7652 15.1076 16.8126 15.3752 15.5585L15.822 13.4654L16.4889 8.88066C17.106 8.37637 17.5 7.60925 17.5 6.75013C17.5 5.23134 16.2688 4.00013 14.75 4.00013H14.469C14.4525 3.94511 14.4295 3.89112 14.3995 3.83923L12.3995 0.375125C12.1924 0.0164058 11.7337 -0.106501 11.375 0.100606C11.0163 0.307713 10.8934 0.766406 11.1005 1.12513L12.7604 4.00013H4.73963L6.39952 1.12513ZM14.8835 9.49694C14.8392 9.49906 14.7947 9.50013 14.75 9.50013H2.75C2.70525 9.50013 2.66076 9.49906 2.61653 9.49694L3.1553 13.2006L3.59174 15.2454C3.72772 15.8825 4.24783 16.3665 4.89308 16.4562C7.45203 16.8123 10.048 16.8123 12.6069 16.4562C13.2522 16.3665 13.7723 15.8825 13.9083 15.2454L14.3447 13.2006L14.8835 9.49694ZM1.5 6.75013C1.5 6.05977 2.05964 5.50013 2.75 5.50013H14.75C15.4404 5.50013 16 6.05977 16 6.75013C16 7.44048 15.4404 8.00013 14.75 8.00013H2.75C2.05964 8.00013 1.5 7.44048 1.5 6.75013Z" fill="white"/>
</svg>
