<svg width="27" height="26" viewBox="0 0 27 26" fill="none" xmlns="http://www.w3.org/2000/svg">
<path fill-rule="evenodd" clip-rule="evenodd" d="M5.96676 0C6.59084 0 7.09675 0.505552 7.09675 1.12918V3.63992C11.3572 3.26078 15.6429 3.26078 19.9033 3.63993V1.12918C19.9033 0.505552 20.4093 0 21.0333 0C21.6574 0 22.1633 0.505552 22.1633 1.12918V3.86396C24.4128 4.1818 26.19 5.95977 26.4908 8.22772L26.6212 9.21079C27.1697 13.3456 27.1223 17.5376 26.4805 21.659C26.1626 23.7006 24.5028 25.2688 22.4451 25.4715L20.6476 25.6487C15.8941 26.1171 11.1059 26.1171 6.35235 25.6487L4.55491 25.4715C2.4972 25.2688 0.837381 23.7006 0.519461 21.659C-0.122311 17.5376 -0.169681 13.3456 0.378795 9.2108L0.509198 8.22773C0.810043 5.95975 2.58722 4.18176 4.83677 3.86395V1.12918C4.83677 0.505552 5.34268 0 5.96676 0ZM6.63747 5.95125C11.2014 5.50149 15.7986 5.50149 20.3625 5.95125L21.7267 6.08568C23.0326 6.21437 24.078 7.22457 24.2504 8.52448L24.3808 9.50755C24.4264 9.85099 24.4676 10.1948 24.5045 10.539H2.49552C2.53241 10.1948 2.57363 9.85099 2.61918 9.50756L2.74959 8.52448C2.92202 7.22457 3.96737 6.21437 5.27327 6.08568L6.63747 5.95125ZM2.31588 12.7974C2.16795 15.64 2.31369 18.4933 2.75257 21.3117C2.91204 22.3358 3.74458 23.1224 4.7767 23.2241L6.57415 23.4012C11.1802 23.8551 15.8198 23.8551 20.4259 23.4012L22.2233 23.2241C23.2554 23.1224 24.088 22.3358 24.2474 21.3118C24.6863 18.4933 24.832 15.64 24.6841 12.7974H2.31588Z" fill="#8D8D8D"/>
</svg>
