<svg width="208" height="27" viewBox="0 0 208 27" fill="none" xmlns="http://www.w3.org/2000/svg">
<g clip-path="url(#clip0_1_15)">
<path d="M54.2517 5.26596H46.811V1.68549H66.0722V5.26596H58.6316V25.4919H54.2549V5.26596H54.2517Z" fill="white"/>
<path d="M68.7236 1.54047H72.9183V5.52056H68.7236V1.54047ZM68.7593 7.61857H72.8435V25.4919H68.7593V7.61857Z" fill="white"/>
<path d="M75.7126 16.5552C75.7126 10.8381 79.3224 7.32852 84.7583 7.32852C89.7913 7.32852 93.0762 10.2225 93.0762 14.9632H89.3917C89.3559 12.2851 87.6046 10.6576 84.8688 10.6576C81.7301 10.6576 79.7968 12.8652 79.7968 16.5552C79.7968 20.2453 81.6943 22.4529 84.7226 22.4529C87.7508 22.4529 89.3917 20.8608 89.4274 18.2182H93.112C93.112 22.9943 89.6841 25.7787 84.5406 25.7787C79.3972 25.7787 75.7126 22.2692 75.7126 16.552V16.5552Z" fill="white"/>
<path d="M95.838 0.725128H99.9222V17.2965H99.958L109.66 7.92474H114.95L106.525 15.7045L115.427 25.7981H109.881L103.532 18.273L99.9222 21.5666V25.8013H95.838V0.725128Z" fill="white"/>
<path d="M133.626 17.3513H120.129C120.347 20.7899 122.28 22.6333 125.347 22.6333C127.973 22.6333 129.763 21.4764 129.945 19.3784H133.629C133.483 23.3585 130.201 25.782 125.276 25.782C119.586 25.782 116.009 22.3078 116.009 16.7003C116.009 11.0927 119.583 7.32852 125.276 7.32852C130.383 7.32852 133.629 10.3321 133.629 15.9043V17.3513H133.626ZM129.942 14.6377C129.942 11.9596 128.265 10.4771 125.308 10.4771C122.351 10.4771 120.711 11.9242 120.236 14.8923H129.938V14.6377H129.942Z" fill="white"/>
<path d="M138.581 19.43V11.2152H135.735V7.92153H138.032C138.724 7.92153 138.981 7.56058 139.091 6.54541L139.273 3.86731H142.665V7.9183H148.868V11.2119H142.665V19.2076C142.665 21.5247 143.539 22.6817 146.022 22.6817C147.042 22.6817 148.212 22.5012 148.722 22.3562V25.5757C148.176 25.7562 146.935 26.0108 145.44 26.0108C140.514 26.0108 138.581 23.3682 138.581 19.4267V19.43Z" fill="white"/>
<path d="M154.46 11.2151H151.578V7.9215H154.46V6.14899C154.46 2.1689 157.124 -0.00323486 161.027 -0.00323486C162.632 -0.00323486 163.944 0.286812 164.529 0.502736V3.72226C163.944 3.54179 162.996 3.28719 161.758 3.28719C159.678 3.28719 158.547 4.37326 158.547 6.32624V7.91828H164.822V11.2119H158.547V25.7949H154.463V11.2119L154.46 11.2151Z" fill="white"/>
<path d="M167.554 18.779V7.92474H171.638V18.2021C171.638 21.0252 173.39 22.6172 176.343 22.6172C179.992 22.6172 182.289 20.1937 182.289 15.8495V7.92474H186.373V25.7981H182.289C182.4 24.6025 182.471 22.6849 182.471 20.8061H182.435C181.669 24.2061 179.154 26.0881 175.141 26.0881C170.436 26.0881 167.554 23.5196 167.554 18.779Z" fill="white"/>
<path d="M189.142 7.92472H193.226L193.08 12.7008H193.115C194.1 9.48131 196.436 7.63467 200.631 7.63467C205.189 7.63467 208 10.2032 208 14.6184V25.7981H203.916V15.5207C203.916 12.6976 202.311 11.1056 199.065 11.1056C195.491 11.1056 193.229 13.239 193.229 17.1482V25.7949H189.145V7.92472H189.142Z" fill="white"/>
<path d="M24.0115 1.85629H3.28493V4.86634H0V25.4242H6.31967V8.12453H24.0115V1.85629Z" fill="#731DD8"/>
<path d="M36.1439 1.73062H29.8243V19.0303H12.1324V25.2986H32.859V22.2885H36.1439V1.73062Z" fill="#731DD8"/>
</g>
<defs>
<clipPath id="clip0_1_15">
<rect width="208" height="26.0881" fill="white"/>
</clipPath>
</defs>
</svg>
